<svg xmlns="http://www.w3.org/2000/svg" viewBox="0 0 357.25222 96.53176" fill="#F5F1E7" role="img" aria-label="Enzo">
<title>Enzo</title>
<metadata>DM Serif Text Regular, CoreText shaping. Shape Cluster at 108% and 0.44× gap. See design/brand/SPEC.md.</metadata>
<path d="M 7.30000 82.21588 L 7.30000 80.11588 L 9.30000 79.41588 Q 11.10000 78.91588 11.80000 77.66588 Q 12.50000 76.41588 12.60000 74.21588 L 12.60000 23.91588 Q 12.50000 21.81588 11.90000 20.66588 Q 11.30000 19.51588 9.40000 18.91588 L 7.30000 18.21588 L 7.30000 16.11588 L 54.90000 16.11588 L 55.60000 32.11588 L 52.80000 32.11588 L 48.80000 23.11588 Q 48.00000 21.21588 47.00000 20.16588 Q 46.00000 19.11588 44.00000 19.11588 L 27.00000 19.11588 Q 26.90000 25.31588 26.90000 31.86588 Q 26.90000 38.41588 26.90000 46.61588 L 36.80000 46.61588 Q 38.80000 46.61588 39.85000 45.56588 Q 40.90000 44.51588 41.80000 42.71588 L 43.50000 38.91588 L 45.70000 38.91588 L 45.70000 57.41588 L 43.50000 57.41588 L 41.70000 53.61588 Q 40.90000 51.81588 39.90000 50.71588 Q 38.90000 49.61588 36.90000 49.61588 L 26.90000 49.61588 Q 26.90000 56.81588 26.90000 62.01588 Q 26.90000 67.21588 26.95000 71.26588 Q 27.00000 75.31588 27.00000 79.21588 L 46.20000 79.21588 Q 48.20000 79.21588 49.30000 78.16588 Q 50.40000 77.11588 51.10000 75.21588 L 54.80000 66.21588 L 57.60000 66.21588 L 56.90000 82.21588 Z "/>
<path d="M 62.50000 82.21588 L 62.50000 80.31588 L 64.10000 79.91588 Q 67.40000 78.91588 67.40000 75.01588 L 67.40000 45.51588 Q 67.30000 43.41588 66.70000 42.26588 Q 66.10000 41.11588 64.10000 40.71588 L 62.50000 40.31588 L 62.50000 38.51588 L 78.70000 32.71588 L 79.90000 33.81588 L 80.60000 40.01588 Q 84.20000 36.81588 88.65000 34.76588 Q 93.10000 32.71588 97.40000 32.71588 Q 104.00000 32.71588 107.55000 36.31588 Q 111.10000 39.91588 111.10000 47.31588 L 111.10000 75.11588 Q 111.10000 79.01588 114.70000 80.01588 L 115.80000 80.31588 L 115.80000 82.21588 L 92.80000 82.21588 L 92.80000 80.31588 L 94.30000 79.91588 Q 97.60000 78.81588 97.60000 75.01588 L 97.60000 45.31588 Q 97.60000 41.81588 96.10000 40.21588 Q 94.60000 38.61588 91.10000 38.61588 Q 86.20000 38.61588 80.90000 42.91588 L 80.90000 75.11588 Q 80.90000 79.01588 84.40000 80.01588 L 85.40000 80.31588 L 85.40000 82.21588 Z "/>
<path d="M 120.20000 82.21588 L 120.20000 80.01588 L 147.40000 36.81588 L 133.50000 36.81588 Q 131.00000 36.81588 129.55000 38.21588 Q 128.10000 39.61588 126.90000 41.91588 L 123.50000 48.51588 L 120.90000 48.31588 L 121.60000 34.21588 L 161.20000 34.21588 L 161.20000 36.21588 L 134.60000 79.51588 L 149.10000 79.51588 Q 152.10000 79.51588 153.55000 78.06588 Q 155.00000 76.61588 156.20000 74.11588 L 159.70000 66.81588 L 162.30000 66.81588 L 161.40000 82.21588 Z "/>
<path d="M 191.40000 83.61588 Q 184.00000 83.61588 178.45000 80.51588 Q 172.90000 77.41588 169.85000 71.71588 Q 166.80000 66.01588 166.80000 58.11588 Q 166.80000 50.21588 170.05000 44.51588 Q 173.30000 38.81588 178.85000 35.76588 Q 184.40000 32.71588 191.40000 32.71588 Q 198.40000 32.71588 203.95000 35.76588 Q 209.50000 38.81588 212.75000 44.46588 Q 216.00000 50.11588 216.00000 58.11588 Q 216.00000 66.01588 212.95000 71.76588 Q 209.90000 77.51588 204.40000 80.56588 Q 198.90000 83.61588 191.40000 83.61588 Z M 191.40000 80.81588 Q 195.00000 80.81588 197.25000 78.86588 Q 199.50000 76.91588 200.50000 72.01588 Q 201.50000 67.11588 201.50000 58.31588 Q 201.50000 49.41588 200.50000 44.46588 Q 199.50000 39.51588 197.25000 37.56588 Q 195.00000 35.61588 191.40000 35.61588 Q 187.80000 35.61588 185.60000 37.56588 Q 183.40000 39.51588 182.35000 44.46588 Q 181.30000 49.41588 181.30000 58.31588 Q 181.30000 67.11588 182.35000 72.01588 Q 183.40000 76.91588 185.60000 78.86588 Q 187.80000 80.81588 191.40000 80.81588 Z "/>
<svg x="248.37600" y="5.00000" width="103.87622" height="86.53176" viewBox="56.078804 89.375000 398.546196 332.000000"><path  d="M 305.375 312.125
C 324.155 314.692 345.496 312.819 361.281 301.333
C 388.712 281.372 392.038 243.832 389.854 212.651
C 387.98 185.901 383.11 164.281 402.953 142.078
C 412.32 131.596 427.744 124.773 441.249 121.97
C 445.786 121.029 450.693 120.624 454.625 119.125
C 437.379 111.145 419.645 103.333 400.835 100.195
C 363.922 94.036 325.694 106.604 305.73 139.681
C 294.741 157.886 289.102 178.693 289.886 199.943
C 290.373 213.171 294.281 225.198 297.815 237.88
C 304.707 262.616 308.194 286.723 305.375 312.125
Z
M 161.125 219.375
C 156.376 251.737 164.052 275.605 169.049 306.845
C 175.352 346.25 161.018 390.283 136.625 421.375
C 141.726 421.03 147.467 418.206 151.962 415.869
C 187.518 397.383 200.741 357.475 226.375 328.875
C 225.875 355.875 260.875 377.875 241.875 420.875
C 268.126 406.309 281.696 380.498 289.023 352.459
C 303.408 297.41 283.711 257.995 229.325 240.257
C 206.371 232.771 183.023 231.145 161.125 219.375
Z
M 116.375 89.375
C 66.658 147.371 40.669 217.564 94.902 282.494
C 109.009 299.383 127.046 315.067 147.875 322.875
C 121.712 296.297 107.884 262.622 106.137 225.413
C 105.813 218.516 107.114 211.676 106.875 204.875
C 145 208 183 198 205.875 168.625
C 160.086 165.298 126.953 133.314 116.375 89.375
Z
M 84.625 284.875
C 67.203 295.957 55.062 322.379 56.146 342.655
C 56.801 354.92 60.624 365.788 64.875 377.125
C 64.413 373.574 66.264 368.603 66.821 364.991
C 69.405 348.252 80.178 331.046 94.261 321.512
C 99.789 317.77 105.924 315.467 111.625 312.125
C 104.88 306.972 88.647 292.029 84.625 284.875
Z
M 134.875 111.625
C 141.333 122.613 148.335 132.085 157.375 141.125
C 156.688 137.279 163.04 107.696 164.875 103.125
C 157.281 103.997 142.176 108.762 134.875 111.625
Z"/></svg>
</svg>